<svg xmlns="http://www.w3.org/2000/svg" width="32" height="32" viewBox="0 0 32 32"><path fill="none" d="M0 0h8v5H0z"/><rect width="22" height="12" x="5" y="10" ry="1" fill="#4f81bd" fill-rule="evenodd"/><rect width="2" height="1" x="7" y="12" ry=".5" rx="0" fill-rule="evenodd" fill-opacity=".663"/><rect width="2" height="1" x="10" y="12" ry=".5" fill-rule="evenodd" fill-opacity=".663"/><rect width="12" height="6" x="10" y="4" ry="0" fill-rule="evenodd" fill-opacity=".661"/><path fill-rule="evenodd" fill-opacity=".663" d="M8 15h1v3H8zM9 15h15v1H9zM23 16h1v2h-1z"/><rect width="10" height="5" x="11" y="5" ry="0" fill="#fff" fill-rule="evenodd"/><path fill="#365b87" fill-rule="evenodd" d="M12 6h3v3h-3zM16 7h4v1h-4z"/><rect width="1" height="5" x="10" y="17" ry="0" fill="#fff" fill-rule="evenodd"/><path fill="#fff" fill-rule="evenodd" d="M11 17h10v1H11zM21 17h1v5h-1z"/><path fill-opacity=".663" fill-rule="evenodd" d="M10 17h12v10H10z"/><path fill="#fff" fill-rule="evenodd" d="M11 18h10v8H11z"/><path fill="#365b87" fill-rule="evenodd" d="M12 19h8v1h-8zM12 21h8v1h-8zM12 23h8v1h-8z"/></svg>